<svg width="76" height="75" viewBox="0 0 76 75" fill="none" xmlns="http://www.w3.org/2000/svg">
<path d="M69.2659 57.5376C60.7301 70.7334 46.9021 74.3322 41.4391 73.9895C8.83228 72.4471 13.7831 29.0895 33.4155 29.2609C19.4167 38.1723 38.537 67.6487 66.7052 56.1666C69.6074 54.1101 70.1195 56.6807 69.2659 57.5376Z" fill="url(#paint0_radial_69_8)"/>
<path d="M47.4142 37.144C50.4871 23.0913 42.122 14.0085 25.3918 14.0085C8.66156 14.0085 0.808594 29.7749 0.808594 37.8295C0.808594 59.0799 22.1482 81.1871 49.8043 72.6184C26.9282 79.302 13.2709 52.739 24.8796 36.6299C32.7326 25.3192 45.8778 24.9765 47.4142 37.144ZM64.4859 10.4097H64.6566Z" fill="url(#paint1_radial_69_8)"/>
<path d="M0.979126 36.8013C3.02772 -9.12687 65.8514 -11.6975 74.8994 28.0613C77.2894 46.3983 60.2178 53.596 46.5605 47.7693C39.3904 43.3136 50.9991 44.3418 46.0483 30.8033C37.8539 11.6094 3.19844 13.1517 0.979126 36.8013Z" fill="url(#paint2_linear_69_8)"/>
<defs>
<radialGradient id="paint0_radial_69_8" cx="0" cy="0" r="1" gradientUnits="userSpaceOnUse" gradientTransform="translate(48.9118 51.6359) scale(25.9094 22.3755)">
<stop offset="0.8" stop-color="#114488"/>
<stop offset="1" stop-color="#113377"/>
</radialGradient>
<radialGradient id="paint1_radial_69_8" cx="0" cy="0" r="1" gradientUnits="userSpaceOnUse" gradientTransform="translate(32.7326 48.87) scale(31.924 32.0503)">
<stop offset="0.8" stop-color="#3388CC"/>
<stop offset="1" stop-color="#226699"/>
</radialGradient>
<linearGradient id="paint2_linear_69_8" x1="0.979126" y1="24.9523" x2="60.4309" y2="69.4003" gradientUnits="userSpaceOnUse">
<stop offset="0.1" stop-color="#55AADD"/>
<stop offset="0.6" stop-color="#55CC88"/>
<stop offset="0.8" stop-color="#77DD55"/>
</linearGradient>
</defs>
</svg>
