<svg width="75" height="76" viewBox="0 0 75 76" fill="none" xmlns="http://www.w3.org/2000/svg">
<path d="M16.9096 31.1528C19.8646 22.3982 28.2791 16.1107 38.246 16.1107C43.6037 16.1107 48.4429 17.9695 52.2451 21.0111L63.3062 10.1963C56.5659 4.45095 47.9244 0.902344 38.246 0.902344C23.259 0.902344 10.3556 9.26165 4.1524 21.5041L16.9096 31.1528Z" fill="#EA4335"/>
<path d="M51.0497 56.7051C47.5966 58.8852 43.2087 60.0457 38.2465 60.0457C28.3178 60.0457 19.9296 53.8062 16.9443 45.104L4.14496 54.6059C10.3405 66.8697 23.2435 75.2541 38.2465 75.2541C47.5393 75.2541 56.4192 72.0241 63.0695 65.9588L51.0497 56.7051Z" fill="#34A853"/>
<path d="M63.0694 65.9587C70.0243 59.6157 74.5407 50.1716 74.5407 38.0781C74.5407 35.8813 74.195 33.5156 73.6765 31.3188H38.2465V45.6823H58.6404C57.6341 50.5123 54.933 54.2534 51.0497 56.7051L63.0694 65.9587Z" fill="#4A90E2"/>
<path d="M16.944 45.1037C16.1878 42.8993 15.7783 40.5369 15.7783 38.0779C15.7783 35.6561 16.1755 33.328 16.9098 31.1524L4.15259 21.5037C1.60698 26.4927 0.223633 32.1154 0.223633 38.0779C0.223633 44.0246 1.63294 49.6339 4.14459 54.6056L16.944 45.1037Z" fill="#F5DE19"/>
</svg>
