<svg width="75" height="76" viewBox="0 0 75 76" fill="none" xmlns="http://www.w3.org/2000/svg">
<path d="M37.4445 74.2593C57.1219 74.2593 73.0739 57.8557 73.0739 37.6234C73.0739 17.3928 57.1213 0.988647 37.4445 0.988647C17.7647 0.988647 1.81213 17.3928 1.81213 37.6234C1.81155 57.8557 17.7665 74.2593 37.4445 74.2593Z" fill="#2179A6"/>
<path d="M72.7603 42.4201C72.5744 42.5621 72.3856 42.703 72.1817 42.8328C72.4971 41.9778 72.783 40.8765 73.02 39.6088C73.0542 38.9511 73.0746 38.2893 73.0746 37.6222C73.0746 29.9722 70.7898 22.8723 66.8901 16.9964C63.3599 12.8126 58.5528 9.22244 52.1836 7.41748C59.0379 12.0611 61.5985 16.0063 63.2187 19.5167C61.3853 17.5907 58.2478 15.5814 56.1298 15.4144C59.3068 17.8421 64.6234 25.0445 64.0576 35.9564C63.2425 34.1986 61.7513 31.4472 60.6923 30.4844C61.8327 41.2013 60.8341 43.5022 60.1416 46.349C59.9894 45.0406 59.5311 44.058 59.2667 43.4608C59.2667 43.4608 59.1447 46.81 57.0273 51.5817C55.4228 55.1957 53.7672 56.3121 53.0347 56.1858C52.8348 56.1724 52.7285 56.0845 52.7302 56.0764C52.7825 55.6084 52.8296 55.1183 52.7088 54.8057C52.7088 54.8057 52.032 55.0455 51.5951 55.6765C51.4191 55.9309 51.1914 56.1788 50.8922 56.4122C50.8411 56.453 51.3755 55.7085 51.3355 55.7429C51.0723 55.9635 50.7906 56.2201 50.5065 56.5228C49.4678 57.6305 48.532 58.8592 48.044 58.5111C48.4983 58.3691 48.8608 57.7748 48.9589 57.1928C48.5511 57.4855 47.5153 58.2812 45.1917 58.6357C44.2413 58.7812 40.1987 59.5361 34.8223 56.7737C35.6065 56.6817 36.7794 56.3977 37.6734 56.9407C36.7794 55.9378 34.619 56.1462 33.0702 55.6433C31.7208 55.2044 29.9594 53.2586 28.9475 52.2761C33.0853 53.3174 37.4794 52.566 40.0198 50.7814C42.5868 48.977 44.1077 47.6598 45.4723 47.9718C46.8345 48.2838 47.7425 46.8793 46.6812 45.6308C45.6239 44.3817 43.0585 42.7024 39.5678 43.6017C36.8956 44.2897 34.6178 46.4939 30.8645 44.9614C30.6374 44.8694 30.4033 44.7623 30.1628 44.6407C29.9228 44.5179 30.9476 44.7862 30.6949 44.6337C29.9734 44.3601 28.6617 43.7426 28.3363 43.508C28.2835 43.4672 28.8795 43.6192 28.8173 43.5796C25.2546 41.4137 25.4881 39.6815 25.4881 38.6088C25.4881 37.7509 25.9952 36.5908 26.9468 36.0472C27.4603 36.2352 27.7792 36.4075 27.7792 36.4075C27.7792 36.4075 27.5422 36.0326 27.3918 35.851C27.4266 35.8382 27.4626 35.8283 27.4987 35.8178C27.9181 35.9639 29.4099 36.5914 30.2063 37.2445C31.1526 35.4273 30.4451 32.418 30.3481 32.2318C30.3481 32.2283 30.3504 32.2277 30.3504 32.223C30.5508 31.2993 35.9086 28.4141 36.3094 28.1096C36.8642 27.6877 37.4295 27.0369 37.7832 26.2878C38.04 25.8094 38.2247 25.1283 38.1748 24.147C38.1382 23.4386 37.7286 23.0056 32.0147 23.0551C30.4532 23.0673 29.4366 22.1337 28.822 21.2437C28.6983 21.0499 28.5873 20.8659 28.4885 20.6995C28.3538 20.4521 28.2626 20.2321 28.1934 20.0545C28.876 17.5092 31.1515 13.8911 33.2068 12.7881C29.4099 11.5623 24.7625 15.0547 23.4415 16.9295C23.4375 16.9359 23.4322 16.9411 23.4287 16.9464C20.0891 16.0936 17.2548 16.3003 14.8846 17.0808C13.125 16.2054 12.0085 14.3643 11.3759 12.6607C9.76265 14.4412 8.31675 16.3835 7.07126 18.4673C6.92719 19.6477 6.85051 21.0417 6.96205 22.6511C6.96031 22.8589 6.99226 23.0603 6.98587 23.2465C6.08719 24.5183 5.50104 25.6126 5.27274 26.1522C4.17655 28.3489 3.05363 31.7266 2.1474 36.9726C2.1474 36.9726 2.7562 34.9954 3.97323 32.7562C3.10185 35.4954 2.41811 39.7176 2.7562 45.9846C2.77653 46.0737 2.7957 46.1651 2.81662 46.2536C2.88749 45.65 3.08384 44.2257 3.46899 42.4236C3.70136 46.7984 4.71215 52.1766 8.02861 58.0082C8.33766 58.553 8.71003 59.1857 9.15385 59.8842C15.6665 68.6197 25.9139 74.2581 37.4451 74.2581C55.539 74.2593 70.4732 60.3842 72.7603 42.4201Z" fill="#195D80"/>
<path d="M64.4493 59.3393C66.4953 55.3819 69.2721 53.0648 70.7755 50.3279C72.7704 46.6871 76.5394 36.4511 73.6976 28.1952C75 33.3644 74.5933 38.6163 70.4386 41.2542C71.7823 37.6123 72.6246 29.6218 71.2397 22.4229C70.3387 17.7449 67.4899 13.5535 65.6327 12.2468C67.3423 13.5646 68.7179 18.2839 68.6796 20.4497C65.1023 14.2589 59.2646 8.34 50.4405 5.83948C57.2948 10.4831 59.8554 14.4283 61.4756 17.9387C59.6434 16.0127 56.5053 14.0034 54.3867 13.8364C57.5637 16.2641 62.8814 23.4665 62.315 34.3784C61.5006 32.6206 60.0082 29.8692 58.9498 28.9064C60.0901 39.6239 59.0915 41.9247 58.3991 44.771C58.2469 43.4625 57.7885 42.48 57.5242 41.8828C57.5242 41.8828 57.4022 45.232 55.2842 50.0037C53.6803 53.6177 52.0247 54.7341 51.2915 54.6078C51.0929 54.5944 50.986 54.5065 50.9877 54.4984C51.04 54.0304 51.0871 53.5403 50.9662 53.2277C50.9662 53.2277 50.2895 53.4675 49.8526 54.0985C49.6766 54.3529 49.4495 54.6008 49.1497 54.8342C49.0986 54.875 49.633 54.1305 49.5935 54.1648C49.3292 54.3854 49.0486 54.6421 48.764 54.9448C47.7253 56.0525 46.7889 57.2812 46.302 56.9331C46.7557 56.7911 47.1182 56.1968 47.2164 55.6148C46.808 55.9075 45.7722 56.7032 43.4497 57.0577C42.4988 57.2032 38.4562 57.9581 33.0798 55.1957C33.864 55.1037 35.0369 54.8197 35.9309 55.3627C35.0369 54.3598 32.8764 54.5682 31.3277 54.0653C29.9782 53.6264 28.2169 51.6806 27.2049 50.6981C31.3428 51.7394 35.7369 50.988 38.2772 49.2034C40.8443 47.399 42.3657 46.0818 43.7297 46.3938C45.0914 46.7058 46 45.3007 44.9386 44.0528C43.8819 42.8037 41.3166 41.1244 37.8253 42.0237C35.1531 42.7117 32.8753 44.9159 29.122 43.3834C28.8948 43.2914 28.6607 43.1843 28.4202 43.0627C28.1803 42.9399 29.205 43.2082 28.9523 43.0551C28.2308 42.7821 26.9191 42.1646 26.5938 41.93C26.541 41.8892 27.137 42.0412 27.0748 42.0016C23.5121 39.8357 23.7456 38.1035 23.7456 37.0302C23.7456 36.1723 24.2527 35.0122 25.2043 34.4686C25.7178 34.6566 26.0367 34.8289 26.0367 34.8289C26.0367 34.8289 25.7997 34.454 25.6492 34.2724C25.6841 34.2596 25.7201 34.2497 25.7561 34.2393C26.1756 34.3854 27.6674 35.0128 28.4638 35.6659C29.4101 33.8487 28.7026 30.8395 28.6055 30.6532C28.6055 30.6497 28.6079 30.6491 28.6079 30.6445C28.8083 29.7207 34.1661 26.8355 34.5669 26.5311C35.1217 26.1091 35.6869 25.4583 36.0407 24.7092C36.2975 24.2308 36.4822 23.5498 36.4322 22.5684C36.3957 21.86 35.9867 21.427 30.2728 21.4765C28.7113 21.4887 27.6947 20.5551 27.08 19.6651C26.9563 19.4713 26.8454 19.2873 26.7466 19.1209C26.6118 18.8735 26.5206 18.6535 26.4515 18.476C27.1341 15.9306 29.4095 12.3125 31.4648 11.2095C27.6674 9.98315 23.02 13.4755 21.699 15.3497C21.6949 15.3561 21.6897 15.3619 21.6862 15.3666C18.3465 14.5139 15.5122 14.7205 13.1421 15.5011C10.2398 14.0576 9.07798 9.98315 8.97051 8.23989C7.33523 9.40109 5.82891 14.0849 5.63023 15.0191C5.33978 16.4958 5.04176 18.512 5.21894 21.0719C5.2172 21.2797 5.24915 21.4811 5.24276 21.6674C4.34408 22.9392 3.75794 24.0334 3.52964 24.573C2.43344 26.7697 1.31053 30.1474 0.404297 35.3935C0.404297 35.3935 1.0131 33.4162 2.23012 31.177C1.3326 33.9977 0.631436 38.3847 1.04331 44.9648C1.05957 44.7477 1.24721 43.0854 1.72589 40.845C1.95825 45.2198 2.96905 50.598 6.28551 56.4296C8.8125 60.8777 15.4727 71.2104 32.184 75.077C30.3495 74.5334 29.2091 73.4444 29.2091 73.4444C29.2091 73.4444 35.4505 75.5054 40.0061 75.3296C38.5799 75.0764 38.2953 74.3675 38.2953 74.3675C38.2953 74.3675 54.4907 75.3087 60.0907 67.4591C58.1766 69.7599 53.3288 70.4095 51.4949 70.4299C54.2862 67.7943 60.4567 67.856 67.1407 61.0966C70.8075 57.3877 71.2031 54.5665 71.6033 51.9292C70.9899 55.3831 67.7902 57.4546 64.4493 59.3393Z" fill="#E78244"/>
<path d="M36.5581 24.3083C36.8166 23.6587 37.1105 22.1326 36.2635 21.8124C35.5571 21.6384 34.9582 21.5127 33.8068 21.5389C34.1862 21.6361 35.2754 21.8567 35.5583 22.3788C36.098 23.3776 34.8228 25.771 34.6375 26.2803C35.2185 26.2809 36.3036 24.9474 36.5581 24.3083Z" fill="#144F66"/>
</svg>
