<svg width="75" height="75" viewBox="0 0 75 75" fill="none" xmlns="http://www.w3.org/2000/svg">
<path d="M60.9845 8.68029C55.5216 4.29541 48.9312 1.54446 41.9732 0.744604C35.0152 -0.0552486 27.9729 1.12857 21.6583 4.15956C15.3436 7.19055 10.0138 11.9453 6.28322 17.8756C2.55264 23.806 0.573242 30.6704 0.573242 37.6774C0.573242 44.6845 2.55264 51.5489 6.28322 57.4792C10.0138 63.4095 15.3436 68.1643 21.6583 71.1953C27.9729 74.2263 35.0152 75.4101 41.9732 74.6103C48.9312 73.8104 55.5216 71.0594 60.9845 66.6746C56.8152 69.6028 52.0879 71.1413 47.2772 71.1356C42.4664 71.13 37.7416 69.5804 33.5769 66.6424C29.4122 63.7043 25.9543 59.4813 23.5503 54.3972C21.1463 49.3132 19.8807 43.5469 19.8807 37.6774C19.8807 31.8079 21.1463 26.0417 23.5503 20.9576C25.9543 15.8735 29.4122 11.6505 33.5769 8.71249C37.7416 5.77447 42.4664 4.22486 47.2772 4.21921C52.0879 4.21355 56.8152 5.75206 60.9845 8.68029" fill="url(#paint0_radial_31_530)"/>
<path d="M27.5422 14.6284C31.8001 9.23301 37.4046 5.71676 43.4643 4.63896C49.5241 3.56115 55.6912 4.98369 60.9847 8.68031C65.3246 12.1637 68.8272 16.5778 71.2339 21.5966C73.6407 26.6154 74.8902 32.1109 74.8902 37.6775C74.8902 43.244 73.6407 48.7395 71.2339 53.7583C68.8272 58.7771 65.3246 63.1912 60.9847 66.6746C55.6418 70.3921 49.4441 71.8263 43.3819 70.748C37.3197 69.6698 31.7428 66.1414 27.5422 60.7265C30.5442 62.765 33.901 63.7405 37.2883 63.5586C40.6756 63.3768 43.9786 62.0438 46.8781 59.6886C49.7776 57.3333 52.1753 54.0355 53.8396 50.1139C55.5038 46.1924 56.3782 41.7798 56.3782 37.3028C56.3782 32.8258 55.5038 28.436 53.8396 24.5577C52.1753 20.6793 49.7776 17.4438 46.8781 15.1639C43.9786 12.884 40.6756 11.6368 37.2883 11.543C33.901 11.4492 30.5442 12.512 27.5422 14.6284" fill="url(#paint1_linear_31_530)"/>
<defs>
<radialGradient id="paint0_radial_31_530" cx="0" cy="0" r="1" gradientUnits="userSpaceOnUse" gradientTransform="translate(30.7789 37.6774) scale(30.2056 37.1758)">
<stop stop-color="#FF1D30" stop-opacity="0.75"/>
<stop offset="1" stop-color="#B4040F"/>
</radialGradient>
<linearGradient id="paint1_linear_31_530" x1="37.0118" y1="57.7355" x2="37.0118" y2="4.28821" gradientUnits="userSpaceOnUse">
<stop stop-color="#FD4C56" stop-opacity="0.75"/>
<stop offset="1" stop-color="#9E0404"/>
</linearGradient>
</defs>
</svg>
