<svg width="76" height="75" viewBox="0 0 76 75" fill="none" xmlns="http://www.w3.org/2000/svg">
<path d="M0.989258 37.6774C0.989258 17.1452 17.6213 0.501587 38.1476 0.501587C58.6665 0.501587 75.306 17.1452 75.306 37.6774C75.306 58.2096 58.6665 74.8533 38.1476 74.8533C17.6213 74.8533 0.989258 58.2096 0.989258 37.6774V37.6774Z" fill="#FC3F1D"/>
<path d="M43.0277 21.5421H39.5796C33.258 21.5421 29.9331 24.7368 29.9331 29.4469C29.9331 34.7714 32.2318 37.2661 36.9524 40.4645L40.8521 43.0858L29.6457 59.7928H21.2717L31.3287 44.847C25.5446 40.7102 22.298 36.6927 22.298 29.8974C22.298 21.3782 28.2501 15.5623 39.5385 15.5623H50.7449V59.7518H43.0277V21.5421Z" fill="white"/>
</svg>
