<svg width="168" height="190" viewBox="0 0 168 190" fill="none" xmlns="http://www.w3.org/2000/svg">
<path d="M16.7578 170.91L0.945312 0.0546875H167.504L152.815 170.671L84.2245 189.894L16.7578 170.91Z" fill="#1572B6"/>
<path d="M84.2246 175.129L139.696 159.77L152.745 13.7653H84.2246V175.129Z" fill="#33A9DC"/>
<path d="M84.4922 75.8329H112.174L114.082 54.4017H84.4922V33.4716H84.5666H136.945L136.444 39.085L131.307 96.763H84.4922V75.8329Z" fill="white"/>
<path d="M84.6233 130.186L84.5286 130.213L61.2327 123.916L59.7437 107.225H48.4206H38.7422L41.6728 140.086L84.5218 151.99L84.6233 151.963V130.186Z" fill="#EBEBEB"/>
<path d="M110.393 95.8756L107.876 123.902L84.5459 130.199V151.976L127.429 140.086L127.747 136.551L131.381 95.8756H110.393Z" fill="white"/>
<path d="M84.5677 33.4716V46.4725V54.3475V54.4017H34.1046H34.0369L33.6173 49.6956L32.663 39.085L32.1621 33.4716H84.5677Z" fill="#EBEBEB"/>
<path d="M84.494 75.8328V88.8337V96.7087V96.7629H61.5568H61.4891L61.0695 92.0568L60.1219 81.4462L59.6211 75.8328H84.494Z" fill="#EBEBEB"/>
</svg>
