<svg width="128" height="191" viewBox="0 0 128 191" fill="none" xmlns="http://www.w3.org/2000/svg">
<path d="M95.8535 127.373C113.32 127.373 127.479 113.207 127.479 95.7331C127.479 78.2589 113.32 64.0933 95.8535 64.0933C78.3875 64.0933 64.2285 78.2589 64.2285 95.7331C64.2285 113.207 78.3875 127.373 95.8535 127.373Z" fill="#19BCFE"/>
<path fill-rule="evenodd" clip-rule="evenodd" d="M32.6035 190.653C50.0695 190.653 64.2285 176.487 64.2285 159.013C64.2285 154.243 64.2285 143.696 64.2285 127.373C50.0213 127.373 39.4796 127.373 32.6035 127.373C15.1375 127.373 0.978516 141.539 0.978516 159.013C0.978516 176.487 15.1375 190.653 32.6035 190.653Z" fill="#09CF83"/>
<path fill-rule="evenodd" clip-rule="evenodd" d="M32.6035 127.373C38.4255 127.373 48.9672 127.373 64.2285 127.373V64.0933C48.9672 64.0933 38.4255 64.0933 32.6035 64.0933C15.1375 64.0933 0.978516 78.2589 0.978516 95.7331C0.978516 113.207 15.1375 127.373 32.6035 127.373Z" fill="#A259FF"/>
<path fill-rule="evenodd" clip-rule="evenodd" d="M32.6035 64.0932C38.4255 64.0932 48.9672 64.0932 64.2285 64.0932V0.813477C48.9672 0.813477 38.4255 0.813477 32.6035 0.813477C15.1375 0.813477 0.978516 14.9791 0.978516 32.4533C0.978516 49.9276 15.1375 64.0932 32.6035 64.0932Z" fill="#F24E1E"/>
<path fill-rule="evenodd" clip-rule="evenodd" d="M95.8535 64.0932H64.2285V0.813477H95.8535C113.32 0.813477 127.479 14.9791 127.479 32.4533C127.479 49.9276 113.32 64.0932 95.8535 64.0932Z" fill="#FF7262"/>
</svg>
