<svg width="456" height="191" viewBox="0 0 456 191" fill="none" xmlns="http://www.w3.org/2000/svg">
<path d="M272.981 65.8324C262.994 65.8324 255.556 70.7296 255.556 82.5154C255.556 91.3954 260.458 97.5612 272.443 97.5612C282.601 97.5612 289.501 91.5828 289.501 82.1488C289.501 71.4566 283.327 65.8324 272.981 65.8324ZM253.014 149.054C250.65 151.949 248.295 155.028 248.295 158.659C248.295 165.905 257.548 168.086 270.259 168.086C280.789 168.086 295.131 167.349 295.131 157.573C295.131 151.762 288.231 151.403 279.512 150.858L253.014 149.054ZM306.747 66.3802C310.01 70.5505 313.464 76.3538 313.464 84.6922C313.464 104.814 297.67 116.596 274.802 116.596C268.987 116.596 263.722 115.873 260.458 114.967L254.465 124.574L272.254 125.659C303.662 127.659 322.172 128.567 322.172 152.668C322.172 173.521 303.842 185.298 272.254 185.298C239.397 185.298 226.872 176.96 226.872 162.639C226.872 154.48 230.503 150.139 236.857 144.146C230.864 141.617 228.87 137.087 228.87 132.189C228.87 128.198 230.864 124.574 234.137 121.126C237.403 117.687 241.032 114.238 245.39 110.251C236.496 105.9 229.777 96.4717 229.777 83.0549C229.777 62.21 243.575 47.8933 271.344 47.8933C279.151 47.8933 283.874 48.6099 288.05 49.7056H323.451V65.1096L306.747 66.3802Z" fill="#2F2707"/>
<path d="M355.387 33.4369C345.037 33.4369 339.049 27.4502 339.049 17.1121C339.049 6.78862 345.037 1.16443 355.387 1.16443C365.917 1.16443 371.907 6.78862 371.907 17.1121C371.907 27.4502 365.917 33.4369 355.387 33.4369ZM331.965 142.382V128.067L341.227 126.803C343.769 126.436 344.13 125.894 344.13 123.17V69.8712C344.13 67.8819 343.588 66.6071 341.767 66.0676L331.965 62.6202L333.961 47.941H371.542V123.17C371.542 126.076 371.718 126.436 374.448 126.803L383.707 128.067V142.382H331.965Z" fill="#2F2707"/>
<path d="M455.494 135.353C447.684 139.157 436.25 142.602 425.897 142.602C404.296 142.602 396.13 133.91 396.13 113.415V65.9195C396.13 64.8342 396.13 64.1072 394.672 64.1072H381.967V47.972C397.947 46.1556 404.296 38.1776 406.293 18.418H423.54V44.1684C423.54 45.4328 423.54 45.9807 424.994 45.9807H450.588V64.1072H423.54V107.432C423.54 118.129 426.085 122.295 435.882 122.295C440.972 122.295 446.23 121.028 450.588 119.397L455.494 135.353Z" fill="#2F2707"/>
<path d="M186.519 87.037L103.516 4.15312C98.7396 -0.62119 90.9865 -0.62119 86.2036 4.15312L68.9682 21.3652L90.8322 43.1996C95.9133 41.4852 101.739 42.6351 105.79 46.6803C109.859 50.7506 111.002 56.6185 109.244 61.7094L130.315 82.7522C135.413 80.9983 141.295 82.1336 145.367 86.2059C151.057 91.8863 151.057 101.093 145.367 106.778C139.675 112.463 130.455 112.463 124.761 106.778C120.48 102.499 119.423 96.2211 121.59 90.9552L101.939 71.3309L101.937 122.973C103.324 123.661 104.634 124.575 105.79 125.725C111.48 131.406 111.48 140.613 105.79 146.301C100.098 151.984 90.8739 151.984 85.1899 146.301C79.4997 140.613 79.4997 131.406 85.1899 125.725C86.5958 124.323 88.2228 123.263 89.9582 122.551V70.4269C88.2228 69.7187 86.5979 68.6647 85.1899 67.2524C80.8785 62.953 79.8418 56.6351 82.0507 51.3484L60.4997 29.8223L3.58715 86.6537C-1.19572 91.4322 -1.19572 99.1749 3.58715 103.949L86.5895 186.835C91.3682 191.609 99.1193 191.609 103.904 186.835L186.519 104.335C191.299 99.5581 191.299 91.8113 186.519 87.037Z" fill="#DE4C36"/>
</svg>
