<svg width="87" height="191" viewBox="0 0 87 191" fill="none" xmlns="http://www.w3.org/2000/svg">
<path d="M43.4172 150.83C35.3454 150.864 27.2966 149.969 19.4313 148.162C17.0934 147.637 14.8001 146.932 12.5724 146.052L18.1155 155.479L20.2836 184.934C20.2836 188.239 30.8243 190.913 43.8195 190.913C56.8147 190.913 67.3554 188.239 67.3554 184.934L69.0736 155.16L74.3166 146.025C72.0705 146.919 69.7564 147.634 67.3963 148.162C59.5333 149.969 51.4868 150.864 43.4172 150.83V150.83ZM74.4939 54.9859C64.3169 56.2457 54.0677 56.8374 43.8127 56.7573C33.5576 56.8374 23.3084 56.2457 13.1315 54.9859C9.89906 54.5957 6.70582 53.9327 3.5862 53.0042C2.77383 52.7533 1.98642 52.4284 1.23397 52.0337L6.31342 98.6049C6.54978 97.8041 6.81341 97.0033 7.10431 96.2024C7.69354 94.5654 8.37647 92.9634 9.14973 91.4041C9.91414 89.877 10.7702 88.397 11.7133 86.9723C12.6031 85.6245 13.5873 84.3408 14.6587 83.131C15.6294 82.0265 16.7023 81.0154 17.8632 80.1108C18.8813 79.315 19.9971 78.6513 21.1836 78.1358C22.2327 77.6879 23.3624 77.457 24.504 77.4572C25.7978 77.4651 27.0654 77.8216 28.1721 78.4888C29.5165 79.3375 30.6495 80.4793 31.4857 81.8279C31.7094 82.14 31.8629 82.4965 31.9356 82.8731C31.9969 83.2022 32.0288 83.536 32.0311 83.8707C32.0663 84.4964 31.8779 85.1143 31.4993 85.6149C31.3529 85.8111 31.1628 85.9707 30.9439 86.0814C30.7251 86.1921 30.4834 86.2508 30.2379 86.2529C29.9929 86.241 29.7539 86.1736 29.5389 86.0561C29.3239 85.9385 29.1386 85.7737 28.9971 85.5742C28.5105 84.9464 28.0815 84.2763 27.7153 83.5721C27.3676 82.8977 26.8655 82.3141 26.2494 81.8686C25.7363 81.5225 25.1306 81.3381 24.5108 81.3392C23.3703 81.3998 22.2789 81.8206 21.3949 82.5405C20.1711 83.4567 19.0691 84.524 18.1155 85.7167C16.9591 87.1396 15.9173 88.6509 14.9996 90.2368C14.0154 91.9163 13.1364 93.6548 12.3678 95.4423C11.6302 97.1456 11.0217 98.9015 10.5474 100.695C10.1244 102.21 9.89533 103.772 9.86562 105.344C9.86733 105.816 9.89921 106.288 9.96107 106.756C10.0151 107.21 10.1345 107.653 10.3156 108.073C10.4661 108.443 10.6992 108.775 10.9974 109.043C11.3154 109.303 11.718 109.438 12.1292 109.423C12.7466 109.395 13.3478 109.218 13.8814 108.907C14.6044 108.52 15.2892 108.065 15.9269 107.55C16.6662 106.958 17.3719 106.326 18.0405 105.656C18.7495 104.955 19.4086 104.243 20.0177 103.519C20.6268 102.795 21.1677 102.102 21.6404 101.442C22.0423 100.895 22.3981 100.316 22.704 99.7112L24.6403 93.9424C24.8013 93.4055 25.1252 92.9314 25.5676 92.585C25.9102 92.3351 26.3224 92.1975 26.7471 92.1914C26.9442 92.1916 27.1399 92.2237 27.3266 92.2864C27.5286 92.353 27.7131 92.4637 27.8665 92.6105C28.0198 92.7573 28.1383 92.9365 28.213 93.1348C28.3085 93.3814 28.3548 93.6442 28.3494 93.9085C28.3526 94.6511 28.2818 95.3922 28.138 96.121C28.0018 96.8096 27.8242 97.4895 27.6062 98.157C27.3926 98.8131 27.1539 99.4714 26.8903 100.132C26.6267 100.793 26.3698 101.485 26.1198 102.209C25.9972 102.457 25.8968 102.716 25.8199 102.982C25.6744 103.435 25.4971 103.98 25.288 104.618C25.079 105.256 24.8517 105.989 24.6062 106.817L23.8563 109.294C23.5972 110.136 23.3517 110.962 23.1199 111.771C22.8881 112.581 22.6767 113.314 22.4858 113.97L22.0154 115.613C21.8927 116.054 21.8108 116.291 21.7836 116.4C21.699 116.699 21.5871 116.99 21.4495 117.269C21.2983 117.588 21.118 117.892 20.9109 118.178C20.7179 118.436 20.4882 118.665 20.2291 118.857C20.0112 119.034 19.7401 119.135 19.4586 119.142C19.2727 119.158 19.086 119.125 18.9164 119.048C18.7468 118.971 18.6001 118.851 18.4905 118.701C18.2446 118.197 18.1409 117.636 18.1905 117.079V116.733C18.184 116.611 18.184 116.488 18.1905 116.366C18.2788 115.865 18.4111 115.372 18.5859 114.893C18.7814 114.174 19.0086 113.36 19.2677 112.45C19.5268 111.541 19.8177 110.6 20.1404 109.627C20.454 108.654 20.7359 107.783 20.9859 107.014C20.2495 107.833 19.4518 108.647 18.5927 109.457C17.7607 110.243 16.8769 110.973 15.9473 111.642C15.094 112.26 14.1803 112.789 13.2201 113.224C12.3918 113.612 11.49 113.82 10.5747 113.835C9.69503 113.858 8.82613 113.637 8.06566 113.197C7.93611 113.122 7.82021 113.034 7.7043 112.946L10.5338 142.482C11.2701 144.321 25.1381 148.834 43.4309 148.834C61.7237 148.834 75.6052 144.314 76.328 142.475L80.4188 107.36L79.4438 108.256C78.3918 109.238 77.2904 110.167 76.1439 111.038C75.2103 111.758 74.194 112.364 73.1167 112.844C72.1178 113.272 71.0406 113.489 69.9531 113.482C69.0834 113.539 68.22 113.3 67.5054 112.803C67.2219 112.579 66.9957 112.291 66.8452 111.963C66.6947 111.635 66.6243 111.276 66.6395 110.916V110.733C66.6336 110.663 66.6336 110.593 66.6395 110.523C66.7363 109.919 66.9567 109.341 67.2872 108.826C67.7001 108.136 68.1555 107.472 68.6508 106.837C69.1781 106.15 69.7394 105.453 70.3349 104.747C70.9303 104.041 71.4826 103.374 71.9917 102.745C72.4439 102.192 72.865 101.614 73.253 101.014C73.5305 100.641 73.7023 100.2 73.7507 99.7383C73.7542 99.6493 73.7369 99.5608 73.7003 99.4795C73.6636 99.3983 73.6085 99.3266 73.5394 99.2701C73.3371 99.1402 73.0974 99.0805 72.8576 99.1004C72.2595 99.1101 71.6717 99.2564 71.1394 99.528C70.5098 99.8392 69.9213 100.227 69.3872 100.682C68.7851 101.191 68.2222 101.745 67.7031 102.338C67.1569 102.958 66.6426 103.606 66.1622 104.279C65.685 104.948 65.2486 105.627 64.8532 106.315C64.4577 107.003 64.1214 107.629 63.8441 108.195L63.4896 108.955C63.335 109.281 63.1691 109.649 62.9919 110.061C62.8146 110.473 62.6237 110.894 62.4191 111.323C62.2191 111.776 62.0351 112.185 61.8669 112.552L61.4169 113.584C61.2851 113.887 61.1919 114.095 61.1373 114.208C61.0828 114.321 60.9692 114.599 60.7964 115.043C60.6373 115.45 60.4533 115.929 60.2442 116.481L59.5624 118.212L58.9147 119.929L58.3828 121.354C58.2329 121.762 58.1306 122.033 58.0897 122.189C57.9554 122.601 57.7913 123.002 57.5988 123.39C57.4238 123.748 57.2064 124.083 56.9511 124.388C56.7179 124.663 56.4359 124.893 56.1193 125.067C55.7974 125.241 55.4357 125.33 55.0693 125.325C54.6282 125.343 54.1929 125.22 53.8284 124.972C53.6456 124.8 53.506 124.587 53.4207 124.351C53.3355 124.116 53.307 123.863 53.3375 123.614C53.3384 123.276 53.3796 122.939 53.4602 122.61C53.5444 122.265 53.6492 121.925 53.7739 121.592C53.8966 121.253 54.0261 120.913 54.1625 120.608C54.2988 120.302 54.4147 119.983 54.5238 119.685C55.2738 118.047 56.0374 116.407 56.8147 114.764C57.592 113.122 58.3374 111.493 59.051 109.878C59.201 109.539 59.3374 109.199 59.4806 108.88L59.351 109.009C58.4926 109.832 57.5816 110.598 56.6238 111.303C55.7954 111.925 54.9015 112.455 53.9579 112.884C53.1527 113.26 52.2766 113.461 51.3875 113.475C50.8982 113.49 50.4116 113.397 49.9626 113.203C49.6013 113.039 49.2872 112.787 49.0489 112.47C48.81 112.14 48.6429 111.763 48.558 111.364C48.558 111.222 48.5035 111.066 48.483 110.916C48.2376 111.106 47.9921 111.29 47.7467 111.466C46.9491 112.034 46.0973 112.523 45.2036 112.925C44.5001 113.262 43.7338 113.449 42.9536 113.475C42.6501 113.484 42.3483 113.428 42.0684 113.31C41.7885 113.193 41.5371 113.018 41.3309 112.796C40.8509 112.145 40.6299 111.34 40.7105 110.536C40.7272 109.651 40.8392 108.771 41.0446 107.91C40.6484 108.595 40.192 109.245 39.6809 109.851C39.1301 110.513 38.5083 111.114 37.8264 111.642C37.117 112.189 36.3316 112.63 35.4947 112.952C34.5983 113.294 33.6453 113.464 32.6856 113.455C32.2391 113.457 31.7943 113.4 31.3629 113.285C30.9519 113.175 30.5717 112.973 30.2516 112.694C29.9111 112.386 29.6473 112.002 29.4811 111.575C29.2695 111.013 29.1699 110.416 29.188 109.817C29.188 109.817 29.188 109.552 29.2698 109.07C29.3909 108.298 29.5686 107.536 29.8016 106.79C30.1016 105.749 30.5561 104.392 31.1652 102.718C31.7743 101.044 32.6561 99.0393 33.8106 96.7046C34.0238 96.1732 34.3714 95.7056 34.8197 95.3473C35.1793 95.0836 35.614 94.941 36.0606 94.9401C36.2659 94.9422 36.47 94.9719 36.6674 95.0283C36.8766 95.0857 37.0748 95.1774 37.2537 95.2998C37.4321 95.4219 37.5812 95.5818 37.6901 95.7681C37.8073 95.9746 37.864 96.2097 37.8537 96.4467C37.8552 96.6049 37.8345 96.7625 37.7923 96.915C37.6815 97.294 37.5307 97.6603 37.3424 98.0077C37.1151 98.4602 36.8469 98.976 36.5378 99.5551C36.2287 100.134 35.906 100.761 35.5697 101.435C35.2288 102.105 34.9129 102.799 34.622 103.519C34.3311 104.237 34.0807 104.971 33.872 105.718C33.6697 106.425 33.5507 107.154 33.5174 107.889C33.5156 108.172 33.5885 108.451 33.7288 108.697C33.7964 108.816 33.8962 108.913 34.0168 108.978C34.1374 109.043 34.2738 109.072 34.4106 109.063C35.3448 109.053 36.2508 108.744 36.9946 108.181C37.8499 107.556 38.614 106.816 39.265 105.982C39.9673 105.093 40.5966 104.149 41.1468 103.159C41.7105 102.154 42.1786 101.234 42.5513 100.397C42.8194 99.8156 43.0472 99.217 43.2331 98.6049C43.4289 98.0052 43.6565 97.4161 43.915 96.8404C44.1175 96.351 44.3908 95.8937 44.7263 95.483C44.8628 95.3114 45.0371 95.1732 45.2357 95.0791C45.4342 94.9849 45.6518 94.9374 45.8717 94.9401C46.1005 94.9317 46.3278 94.9785 46.5344 95.0766C46.741 95.1747 46.9207 95.3211 47.0581 95.5034C47.3547 95.8931 47.5087 96.372 47.4944 96.8607C47.4683 97.2781 47.3739 97.6885 47.2149 98.0756C47.0285 98.5914 46.8013 99.1796 46.5331 99.8402C46.2649 100.501 45.9558 101.209 45.6058 101.964C45.274 102.72 44.9649 103.485 44.6786 104.258C44.4115 105.006 44.1839 105.767 43.9968 106.539C43.8184 107.217 43.7245 107.914 43.7172 108.616C43.7021 108.737 43.7155 108.861 43.7565 108.977C43.7975 109.093 43.8649 109.198 43.9534 109.283C44.042 109.369 44.1492 109.432 44.2668 109.47C44.3843 109.507 44.5089 109.517 44.6309 109.498C45.1901 109.464 45.736 109.314 46.2331 109.057C46.9466 108.716 47.621 108.3 48.2444 107.815C48.4217 107.679 48.5989 107.543 48.7694 107.401C48.9457 106.646 49.1735 105.905 49.4512 105.181C49.9376 103.905 50.4307 102.636 50.9307 101.374L52.2943 97.9127L58.601 82.079C58.7799 81.5292 59.1342 81.0527 59.6101 80.7216C59.9914 80.4725 60.4358 80.336 60.8919 80.328C61.319 80.3274 61.7333 80.4737 62.0646 80.742C62.2539 80.911 62.4006 81.1218 62.493 81.3576C62.5854 81.5934 62.6208 81.8475 62.5964 82.0994C62.5915 82.4171 62.5315 82.7317 62.4191 83.0292C62.2873 83.3894 62.1371 83.7428 61.9691 84.0879C61.6237 84.8571 61.2101 85.7982 60.7283 86.9112C60.2465 88.0243 59.7328 89.2346 59.1874 90.5422C58.6374 91.8498 58.076 93.2072 57.5033 94.6143L55.8193 98.7475C55.2738 100.105 54.7602 101.376 54.2784 102.562L53.0375 105.69C52.8653 106.121 52.7152 106.561 52.5875 107.007C52.4503 107.447 52.3768 107.904 52.3693 108.364C52.3591 108.568 52.4014 108.772 52.4921 108.955C52.5425 109.033 52.614 109.095 52.6984 109.135C52.7828 109.175 52.8767 109.19 52.9693 109.179C53.3504 109.154 53.7221 109.05 54.0602 108.873C54.5521 108.639 55.0261 108.369 55.4784 108.066C55.9874 107.731 56.5147 107.346 57.0602 106.912C57.6056 106.478 58.151 106.025 58.6965 105.555C59.2374 105.102 59.7555 104.636 60.251 104.157C60.7464 103.677 61.1873 103.247 61.5737 102.867C61.6647 102.776 61.7739 102.704 61.8942 102.657C62.126 101.978 62.3441 101.299 62.5282 100.621C62.6373 100.327 62.7896 99.908 62.985 99.3651C63.1852 98.8224 63.4128 98.2901 63.6668 97.7702C63.8944 97.2864 64.1781 96.8308 64.5123 96.4128C64.6312 96.2552 64.7843 96.1264 64.9602 96.0359C65.1361 95.9454 65.3302 95.8956 65.5282 95.8902C65.7446 95.8706 65.9628 95.8941 66.17 95.9594C66.3772 96.0246 66.5692 96.1303 66.735 96.2703C66.8687 96.423 66.9706 96.6006 67.035 96.7928C67.0994 96.9851 67.1248 97.1881 67.11 97.3901C67.1054 97.5469 67.0917 97.7032 67.069 97.8584C67.069 98.0688 67.0077 98.2995 66.9668 98.5371C66.9259 98.7746 66.8781 98.9986 66.8304 99.2158C66.7974 99.3752 66.7518 99.5318 66.6941 99.6841C67.2077 99.1275 67.7622 98.5755 68.3577 98.0281C68.9405 97.4904 69.5601 96.9938 70.2122 96.5418C70.8248 96.1151 71.4806 95.7534 72.169 95.4626C72.8004 95.1933 73.4797 95.0526 74.1666 95.0487C74.6283 95.0492 75.0875 95.1155 75.5302 95.2455C75.9628 95.3675 76.371 95.5626 76.737 95.8223C77.0916 96.0755 77.3869 96.4019 77.6029 96.7793C77.8351 97.1935 77.9505 97.6625 77.937 98.1367C77.9206 98.8816 77.7463 99.6148 77.4257 100.288C77.0641 101.087 76.6353 101.855 76.1439 102.582C75.6302 103.351 75.0757 104.1 74.4803 104.828C73.8848 105.557 73.3257 106.22 72.803 106.817L71.4871 108.337C71.242 108.576 71.0533 108.865 70.9349 109.186C70.932 109.365 71.0007 109.538 71.1258 109.668C71.3031 109.807 71.528 109.873 71.753 109.851C72.127 109.803 72.4844 109.668 72.7962 109.457C73.4666 109.048 74.109 108.594 74.7189 108.1C75.5462 107.453 76.5939 106.586 77.862 105.5C78.7347 104.754 79.7506 103.865 80.9029 102.854L86.4118 52.088C85.6595 52.4829 84.8721 52.8078 84.0596 53.0585C80.9317 53.9699 77.7316 54.6147 74.4939 54.9859V54.9859ZM43.8127 42.9529C20.0041 42.9529 0.708984 45.5997 0.708984 48.871C0.708984 52.1423 19.9495 54.7756 43.8127 54.7756C67.6759 54.7756 86.9164 52.1287 86.9164 48.8574C86.9164 45.5862 67.594 42.9529 43.8127 42.9529ZM61.0214 50.6016C61.0214 51.3686 58.7306 51.959 55.9011 51.959C53.0716 51.959 50.7807 51.3346 50.7807 50.6016C50.7807 49.8687 53.0716 49.2443 55.9011 49.2443C58.7306 49.2443 61.001 49.8212 61.001 50.5881L61.0214 50.6016Z" fill="#DA4648"/>
<path d="M51.286 50.1037C51.2605 50.1401 51.2461 50.1828 51.2444 50.227C51.2444 50.7272 53.1219 51.1315 55.4013 51.1315C57.6806 51.1315 59.5582 50.7272 59.5582 50.227L65.0314 28.2999L86.7996 5.57099C87.2568 5.05707 86.3285 3.4605 84.7766 2.09005C83.2246 0.719601 81.548 0.260501 81.0284 0.781272L57.8815 24.9217L51.286 50.1037Z" fill="#DA4648"/>
</svg>
