<svg width="168" height="190" viewBox="0 0 168 190" fill="none" xmlns="http://www.w3.org/2000/svg">
<path d="M15.2011 170.684L0 0.0546875H167.213L152.012 170.684L83.2792 189.894" fill="#E34F26"/>
<path d="M80.1167 176.183L134.75 160.974L147.583 14.8199H80.1167" fill="#EF652A"/>
<path d="M79.0625 77.9942H51.2236L49.3676 56.5846H79.0625V35.9132H26.3541L31.9219 99.0348H79.0625V77.9942ZM79.0625 132.257L55.3066 125.981L53.8218 109.37H33.0355L35.6338 142.223L79.0625 154.035V132.257Z" fill="#EBEBEB"/>
<path d="M79.0625 77.9942V99.0348H105.045L102.447 125.981L79.0625 132.257V154.035L122.12 142.223L128.059 77.9942H79.0625ZM79.0625 35.9132V56.5846H129.915L131.771 35.9132H79.0625Z" fill="white"/>
</svg>
