<svg width="269" height="190" viewBox="0 0 269 190" fill="none" xmlns="http://www.w3.org/2000/svg">
<path d="M167.093 133.161C170.56 140.173 175.941 146.067 182.616 150.165C189.291 154.264 196.99 156.401 204.828 156.33C220.678 156.33 230.805 148.425 230.805 137.51C230.805 124.431 220.398 119.793 202.961 112.178L193.393 108.086C165.796 96.3565 147.454 81.6614 147.454 50.5987C147.454 21.9777 169.317 0.202594 203.476 0.202594C214.562 -0.599835 225.64 1.87546 235.323 7.31899C245.007 12.7625 252.867 20.9328 257.921 30.8082L228.133 49.8851C226.183 44.9915 222.786 40.8058 218.393 37.8843C214.001 34.9627 208.821 33.4435 203.543 33.5287C201.242 33.2977 198.918 33.5476 196.719 34.2624C194.521 34.9772 192.495 36.1411 190.773 37.68C189.05 39.219 187.668 41.0991 186.714 43.2005C185.761 45.3019 185.256 47.5785 185.234 49.8851C185.234 61.3357 192.343 65.9628 208.707 73.0539L218.275 77.1347C250.779 91.0382 268.596 105.295 268.596 137.161C268.596 171.513 242.212 189.894 205.873 189.894C191.642 189.894 177.466 187.939 165.098 181.014C152.73 174.09 142.635 163.744 136.03 151.224L167.093 133.161ZM31.9785 136.506C37.992 147.143 43.4579 156.129 56.5691 156.129C69.1327 156.129 77.0687 151.224 77.0687 132.158V0.202594H95.5917H115.318V132.693C115.318 172.196 92.1803 189.894 58.29 189.894C46.256 190.135 34.3428 187.843 24.1039 181.622C13.865 175.401 5.754 166.234 0.837891 155.327L31.9785 136.506Z" fill="#F5DE19"/>
</svg>
