<svg width="191" height="191" viewBox="0 0 191 191" fill="none" xmlns="http://www.w3.org/2000/svg">
<path d="M95.5002 0.813477V16.154H175.042V175.312H95.5002V190.653H190.375V0.813477H95.5002Z" fill="#006DF0"/>
<path d="M15.9583 175.312V16.154H95.5V0.813477H0.625V190.653H95.5V175.312H15.9583Z" fill="#2488FF"/>
<path d="M125.695 128.682C119.459 128.682 111.48 125.901 107.612 123.579L103.877 138.611C108.978 141.392 116.859 143.328 125.695 143.328C145 143.328 154.972 134.076 154.972 121.463C154.827 111.533 149.448 105.015 136.599 100.626C128.343 97.699 125.743 96.0418 125.743 92.8736C125.743 89.4266 128.621 87.3464 133.722 87.3464C139.524 87.3464 145.289 89.572 148.359 91.2284L152.083 76.7166C147.936 74.6364 140.902 72.8466 133.008 72.8466C116.303 72.8466 105.532 82.3884 105.532 94.9538C105.387 102.984 110.767 110.591 124.752 115.271C132.585 117.919 134.664 119.564 134.664 123.011C134.664 126.469 132.017 128.682 125.695 128.682Z" fill="#2488FF"/>
<path d="M56.8549 108.655C58.7888 108.934 61.2912 109.03 64.0225 109.03C76.449 109.03 87.1106 106.007 94.2421 99.2587C99.8154 94.0099 102.836 86.258 102.836 77.1518C102.836 68.033 98.8717 60.2811 92.8763 55.6007C86.687 50.5939 77.4403 48.139 64.4457 48.139C51.6082 48.139 42.4945 48.9866 36.0269 50.0742V141.961H56.8545V108.655H56.8549ZM56.8913 64.8648C58.366 64.441 61.2916 64.0176 65.5343 64.0176C76.0626 64.0176 81.9736 69.1092 82.0215 77.66C82.0215 87.2137 75.0709 92.8736 63.8898 92.8736C60.8676 92.8736 58.6922 92.7409 56.8913 92.3532V64.8648V64.8648Z" fill="#2488FF"/>
</svg>
