<svg width="255" height="192" viewBox="0 0 255 192" fill="none" xmlns="http://www.w3.org/2000/svg">
<path d="M219.228 110.232C219.538 110.224 219.903 110.216 220.277 110.216C226.904 110.216 233.174 111.755 238.736 114.499L238.49 114.388C243.559 116.855 247.723 120.503 250.735 124.976L250.806 125.087C253.182 128.545 254.597 132.82 254.597 137.42C254.597 137.753 254.589 138.086 254.573 138.411V138.364C254.327 142.956 252.237 147.009 249.026 149.848L249.011 149.864C247.254 151.585 245.133 152.933 242.773 153.79L242.653 153.83C241.329 154.094 240.601 153.896 240.468 153.235C240.336 152.574 240.932 151.847 242.256 151.054C245.848 148.881 248.446 145.375 249.392 141.243L249.416 141.14C249.44 140.807 249.456 140.418 249.456 140.021C249.456 137.555 248.868 135.223 247.827 133.161L247.866 133.248C246.142 129.655 243.567 126.705 240.397 124.572L240.317 124.524C235.573 121.478 229.884 119.48 223.765 118.98L223.638 118.972C221.556 118.663 219.156 118.488 216.709 118.488C210.344 118.488 204.265 119.686 198.671 121.867L199.004 121.748C200.157 124.437 200.88 127.554 200.983 130.821V130.861C200.856 137.563 197.248 143.392 191.884 146.644L191.797 146.692C189.334 148.436 186.521 149.967 183.525 151.157L183.247 151.252C181.427 152.14 179.289 152.656 177.033 152.656C176.771 152.656 176.516 152.648 176.262 152.632H176.302C171.274 151.58 170.082 147.218 172.726 139.546C173.878 136.207 175.491 133.312 177.533 130.766L177.486 130.821C180.1 127.411 182.969 124.421 186.139 121.772L186.227 121.7L185.448 120.543C183.994 118.068 182.659 115.189 181.586 112.183L181.475 111.818C180.68 109.174 180.018 106.666 179.488 104.292L179.091 101.516L175.118 109.042C171.674 115.387 168.363 120.936 165.185 125.69L163.993 127.673C165.328 130.909 166.313 134.66 166.758 138.578L166.774 138.776C166.806 139.149 166.822 139.593 166.822 140.037C166.822 146.049 163.85 151.363 159.289 154.607L159.233 154.647C157.056 155.987 154.457 157.375 151.763 158.612L151.287 158.81C148.482 160.024 145.232 160.817 141.823 160.992H141.751C141.489 161.007 141.179 161.023 140.869 161.023C138.882 161.023 136.999 160.571 135.315 159.77L135.394 159.802C134.385 158.937 133.749 157.668 133.749 156.249C133.749 155.527 133.916 154.837 134.21 154.226L134.194 154.258C137.373 149.809 140.503 145.938 143.833 142.242L143.73 142.361L152.471 131.265L150.889 127.696C149.618 125.365 148.402 122.613 147.425 119.757L147.313 119.377C146.519 116.733 145.857 114.224 145.327 111.85L144.93 109.074L140.956 118.591C137.783 125.989 134.87 132.331 132.215 137.618C128.258 145.55 124.947 151.63 122.283 155.86L121.488 157.05C118.315 162.068 115.269 164.576 112.35 164.576C109.431 164.576 107.452 162.726 106.414 159.025C105.651 156.296 105.206 153.163 105.206 149.928C105.206 149.642 105.206 149.356 105.214 149.071V149.111L106.008 143.559V143.955C103.889 148.973 101.77 153.597 99.6514 157.827C98.2449 160.571 96.7987 162.911 95.1776 165.116L95.2809 164.965C93.644 166.678 91.3396 167.741 88.7888 167.741C88.765 167.741 88.7491 167.741 88.7252 167.741C88.5583 167.757 88.3676 167.757 88.1769 167.757C86.1665 167.757 84.3388 166.995 82.9562 165.75L82.9641 165.758C80.1909 162.919 78.1328 159.374 77.068 155.416L77.0282 155.249C75.725 151.641 74.9781 147.469 74.9781 143.123C74.9781 142.559 74.994 142.004 75.0178 141.457V141.536C75.6456 135.223 76.909 129.441 78.7605 123.929L78.5937 124.492L64.2982 132.82V133.217C66.3722 137.515 67.588 142.559 67.588 147.889C67.588 148.865 67.5483 149.832 67.4688 150.784L67.4767 150.657C67.0556 158.826 64.4412 166.305 60.2217 172.627L60.325 172.468C55.8989 179.479 49.518 184.896 41.9373 188.029L41.675 188.124C37.4078 190.035 32.4176 191.154 27.173 191.154C23.8514 191.154 20.6252 190.71 17.5738 189.869L17.8281 189.924C15.3012 189.076 13.2351 187.394 11.924 185.221L11.9001 185.174C10.0486 182.493 8.88054 179.217 8.69777 175.688V175.64C8.61036 174.839 8.56269 173.911 8.56269 172.968C8.56269 168.899 9.49241 165.044 11.1532 161.61L11.0817 161.769C15.6429 154.004 21.9522 147.715 29.4854 143.289L29.7237 143.162C35.0557 139.474 41.1824 135.897 47.5791 132.78L48.4215 132.408L50.408 131.218C48.0241 129.367 43.6537 126.195 37.2966 121.7C28.802 116.022 21.4198 110.288 14.4589 104.085L14.6575 104.26C7.92698 98.478 3.0241 90.753 0.822964 81.9573L0.759393 81.656C0.552789 80.4346 0.433594 79.0307 0.433594 77.6031C0.433594 73.1299 1.58581 68.9264 3.60418 65.2701L3.54061 65.405C7.99055 55.8558 14.1569 47.8057 21.7218 41.3339L21.8172 41.2545C30.0019 33.5375 39.2673 26.8198 49.3273 21.379L50.0187 21.038C59.006 15.8589 69.5031 11.0447 80.4451 7.18221L81.796 6.76979C91.9594 3.058 103.696 0.884857 115.933 0.845201H115.949C116.506 0.829339 117.165 0.813477 117.825 0.813477C127.686 0.813477 137.015 3.08972 145.311 7.14255L144.945 6.976C152.097 10.2278 157.453 16.3507 159.598 23.8377L159.646 24.028C160.306 26.5819 160.679 29.5164 160.679 32.5382C160.679 37.5507 159.638 42.3253 157.771 46.6557L157.858 46.4257C154.457 54.6503 149.618 61.6535 143.579 67.4195L143.555 67.4433C137.436 73.4948 130.102 78.3328 121.957 81.5608L121.52 81.7115C112.985 85.3677 103.076 87.6678 92.6745 88.0485L92.5236 88.0564C90.9979 88.2309 89.2338 88.3261 87.4459 88.3261C82.7416 88.3261 78.2043 87.6519 73.9133 86.3909L74.255 86.4781C70.4169 85.2567 67.1033 83.3612 64.2903 80.9025L64.3221 80.9263C62.3514 79.3242 60.7462 77.3493 59.6019 75.1048L59.5543 75.0017C58.7596 72.8867 58.6934 71.6309 59.3556 71.2344C60.0178 70.8378 60.4813 70.7717 60.7462 71.0361L62.7328 73.0189C64.9498 75.0731 67.5959 76.691 70.5202 77.7221L70.6791 77.7697C74.7 79.1656 79.3406 79.9745 84.164 79.9745C85.7136 79.9745 87.2393 79.8952 88.7411 79.7287L88.5583 79.7445C101.416 78.2297 113.009 73.8517 123.014 67.2688L122.72 67.4512C131.174 62.4308 138.016 55.5307 142.832 47.306L142.975 47.0364C145.367 43.5308 146.797 39.2004 146.797 34.5368C146.797 31.6737 146.257 28.9295 145.271 26.4074L145.327 26.5581C142.355 21.8707 137.547 18.5714 131.937 17.6593L131.826 17.6434C127.472 16.5727 122.465 15.9541 117.324 15.9541C113.184 15.9541 109.131 16.3507 105.214 17.112L105.611 17.0486C92.2057 19.4597 80.2227 23.5918 69.1693 29.2705L69.8924 28.9295C37.3231 45.3206 20.506 62.1056 19.4412 79.2845V79.6732C19.4412 86.5971 22.1668 92.8865 26.6088 97.5342L26.6008 97.5262C31.6627 103.142 37.2569 108.098 43.3676 112.381L43.6775 112.588C49.2479 116.743 54.1746 121.034 58.7596 125.666L58.7676 125.682L59.5622 126.475L84.9905 112.603C87.8909 108.416 91.3793 104.878 95.3842 102.023L95.5114 101.936C98.6899 99.2711 102.727 97.5342 107.153 97.1852L107.224 97.1773C107.383 97.1614 107.566 97.1614 107.757 97.1614C110.721 97.1614 113.263 98.9459 114.36 101.5L114.376 101.547C115.21 103.411 115.695 105.592 115.695 107.884C115.695 108.582 115.647 109.272 115.56 109.954L115.568 109.875L114.797 113.785L115.989 112.992C116.815 112.365 117.856 111.993 118.985 111.993C119.7 111.993 120.375 112.143 120.987 112.413L120.956 112.397C122.481 112.794 123.586 114.158 123.586 115.776C123.586 116.053 123.554 116.323 123.49 116.585L123.498 116.561L122.306 120.923C119.923 130.435 118.336 137.306 117.547 141.536C117.149 142.908 116.927 144.487 116.927 146.121C116.927 146.462 116.935 146.795 116.959 147.128V147.08C117.091 148.666 117.29 149.46 117.554 149.46C117.819 149.46 118.346 148.666 119.136 147.08L120.328 144.304C120.593 144.304 120.593 144.437 120.328 144.701L124.698 135.58C135.028 112.855 140.588 100.165 141.378 97.5104L143.761 89.9837C144.026 89.4549 145.086 88.9288 146.94 88.4054C148.823 87.8978 150.977 87.6043 153.202 87.6043C153.384 87.6043 153.567 87.6043 153.742 87.6123H153.718C157.426 87.6123 159.281 88.5376 159.281 90.3882L158.883 92.371C157.993 94.8138 157.111 97.8673 156.428 100.992L156.34 101.492C156.182 102.515 156.086 103.689 156.086 104.894C156.086 106.496 156.245 108.059 156.555 109.574L156.531 109.423L156.929 111.001C157.739 114.309 158.971 117.211 160.584 119.86L160.504 119.726C163.678 114.443 166.724 109.026 169.643 103.475C171.947 99.6439 174.093 95.2024 175.817 90.5547L176 89.9996C176.596 87.0095 177.279 84.4874 178.113 82.0287L177.986 82.4729C178.251 81.6797 179.382 81.0849 181.379 80.6884C183.271 80.3077 185.44 80.0935 187.657 80.0935H187.943H187.927C191.635 80.0935 193.614 81.0188 193.863 82.8694L193.068 84.4477C192.123 87.1126 191.296 90.3168 190.74 93.6082L190.692 93.9651C190.621 94.7345 190.573 95.6228 190.573 96.5269C190.573 98.4225 190.764 100.278 191.122 102.071L191.09 101.888V103.467C192.004 106.925 193.362 109.962 195.142 112.714L195.063 112.588L196.255 115.363C202.89 112.112 210.693 110.208 218.942 110.208H219.252H219.236L219.228 110.232ZM48.8664 167.757C54.3891 162.062 57.7981 154.29 57.7981 145.724C57.7981 142.417 57.2896 139.228 56.3519 136.23L56.4155 136.452L50.0584 140.418C43.5742 144.106 37.9641 148.222 32.8864 152.902L32.95 152.846C29.096 156.384 26.2512 160.96 24.8527 166.123L24.805 166.321C23.613 171.212 24.209 174.385 26.5929 175.839C28.0471 176.505 29.7555 176.894 31.5435 176.894C33.4983 176.894 35.3497 176.434 36.9787 175.609L36.9072 175.64C41.6273 173.927 45.6243 171.207 48.8029 167.725L48.8267 167.701L48.8664 167.757ZM102.083 131.242C103.407 127.805 104.864 123.707 106.453 118.948C108.572 112.603 109.301 108.905 108.639 107.853C107.977 106.8 106.718 106.668 104.864 107.456C102.655 108.527 100.804 109.994 99.3256 111.794L99.3018 111.826C97.6489 113.912 96.0756 116.244 94.677 118.695L94.534 118.964C92.9288 121.589 91.57 124.611 90.6244 127.815L90.5529 128.085C89.0192 132.233 88.1292 137.031 88.1292 142.028C88.1292 142.702 88.1451 143.368 88.1769 144.035V143.939C88.4418 149.222 89.2894 152.064 90.7198 152.465C92.1501 152.867 93.8056 150.951 95.6862 146.715C97.5059 143.44 99.127 139.633 100.335 135.643L100.446 135.215C101.235 133.343 101.776 132.019 102.067 131.242H102.083ZM146.153 152.259C151.66 149.793 155.538 144.598 156.078 138.451L156.086 138.388V137.991L151.716 143.543L143.777 152.267C143.658 152.362 143.579 152.505 143.579 152.664C143.579 152.822 143.658 152.965 143.769 153.06C144.024 153.319 144.818 153.055 146.153 152.267V152.259ZM180.315 144.725C186.322 143.012 190.645 137.579 190.645 131.146C190.645 131.043 190.645 130.94 190.645 130.837V130.853C190.565 129.267 190.279 127.776 189.81 126.364L189.842 126.483C186.751 129.227 184.216 132.511 182.381 136.215L182.293 136.397C179.904 141.15 179.237 143.921 180.291 144.709L180.315 144.725Z" fill="black"/>
</svg>
