<svg width="193" height="191" viewBox="0 0 193 191" fill="none" xmlns="http://www.w3.org/2000/svg">
<path d="M185.587 20.1147L146.107 1.17919C143.877 0.108254 141.368 -0.245156 138.928 0.167952C136.488 0.581059 134.237 1.74022 132.488 3.48474L3.24774 120.863C1.67968 122.281 0.741044 124.261 0.638317 126.368C0.535591 128.474 1.27718 130.536 2.69997 132.098C2.87114 132.282 3.04232 132.459 3.2272 132.623L13.7787 142.173C15.1574 143.423 16.9322 144.152 18.7946 144.234C20.6571 144.317 22.4897 143.746 23.9741 142.623L179.644 25.026C180.82 24.1371 182.221 23.5929 183.691 23.4545C185.16 23.3161 186.639 23.5891 187.962 24.2427C189.284 24.8963 190.397 25.9046 191.175 27.1541C191.953 28.4036 192.365 29.8447 192.366 31.3151V30.8581C192.366 28.6132 191.73 26.414 190.53 24.5135C189.331 22.6129 187.618 21.0882 185.587 20.1147V20.1147Z" fill="#0065A9"/>
<path d="M185.588 170.225L146.107 189.165C143.877 190.233 141.369 190.585 138.929 190.172C136.49 189.759 134.239 188.602 132.488 186.86L3.24798 69.4837C1.67992 68.0663 0.741288 66.0866 0.638561 63.9799C0.535835 61.8732 1.27743 59.8121 2.70021 58.2501C2.87139 58.0659 3.04257 57.8886 3.22744 57.7249L13.7789 48.176C15.1591 46.9207 16.9379 46.1881 18.8049 46.1058C20.672 46.0235 22.5088 46.5969 23.9949 47.7258L179.644 165.314C180.82 166.202 182.222 166.747 183.691 166.885C185.161 167.023 186.64 166.75 187.962 166.097C189.284 165.443 190.397 164.435 191.175 163.186C191.953 161.936 192.366 160.495 192.366 159.025V159.516C192.359 161.755 191.719 163.946 190.521 165.84C189.322 167.734 187.612 169.253 185.588 170.225V170.225Z" fill="#007ACC"/>
<path d="M146.456 189.163C144.243 190.233 141.754 190.586 139.333 190.172C136.912 189.758 134.678 188.598 132.94 186.852C133.916 187.821 135.155 188.478 136.5 188.742C137.846 189.006 139.239 188.865 140.505 188.335C141.772 187.806 142.854 186.913 143.618 185.767C144.382 184.621 144.792 183.274 144.798 181.895V8.445C144.799 7.05899 144.392 5.70383 143.627 4.55117C142.862 3.39852 141.774 2.50024 140.501 1.97013C139.228 1.44001 137.828 1.30192 136.477 1.57333C135.126 1.84475 133.886 2.51346 132.913 3.49477C134.649 1.74674 136.883 0.584758 139.304 0.16952C141.726 -0.245717 144.215 0.106307 146.429 1.17691L185.605 20.13C187.627 21.1009 189.334 22.6271 190.53 24.5326C191.727 26.438 192.363 28.645 192.366 30.8988V159.441C192.367 161.693 191.735 163.899 190.544 165.806C189.352 167.712 187.65 169.241 185.632 170.216L146.456 189.163Z" fill="#1F9CF0"/>
</svg>
