<svg width="190" height="190" viewBox="0 0 190 190" fill="none" xmlns="http://www.w3.org/2000/svg">
<path d="M189.694 0H0.0555908C0.0248889 0 0 0.0249006 0 0.055617V189.784C0 189.814 0.0248889 189.839 0.0555908 189.839H189.694C189.725 189.839 189.75 189.814 189.75 189.784V0.055617C189.75 0.0249006 189.725 0 189.694 0Z" fill="#05A8DA"/>
<path d="M94.8752 162.215C132.127 162.215 162.325 132.002 162.325 94.733C162.325 57.4638 132.127 27.2511 94.8752 27.2511C57.6235 27.2511 27.425 57.4638 27.425 94.733C27.425 132.002 57.6235 162.215 94.8752 162.215Z" stroke="white" stroke-width="20"/>
<path d="M116.741 157.024L127.118 151.462L147.13 93.6207C150.836 84.3512 151.948 76.9356 151.948 70.6324C151.948 58.7674 147.13 48.3856 138.606 47.2733C130.824 46.5317 126.376 54.3181 126.747 58.7674C127.488 69.52 138.236 75.4525 138.236 90.2837C138.236 100.666 131.565 117.351 126.747 133.665L103.77 64.3291L111.182 63.9584C114.888 63.9584 114.517 58.3967 110.811 58.7674C99.3223 59.8798 88.5747 59.509 76.7153 58.7674C73.0093 58.3967 73.0093 63.9584 76.3447 63.9584L83.0156 64.3291L93.022 91.7668L78.939 134.036L55.5908 64.3291L63.0029 63.9584C66.3384 63.9584 65.9678 58.3967 62.6323 58.7674C51.8848 59.509 41.5078 60.2506 38.9136 58.3967L35.9487 67.2954L67.0796 153.687L76.3447 158.878L96.3574 100.295" fill="white"/>
</svg>
